<mxfile host="Electron" agent="Mozilla/5.0 (Windows NT 10.0; Win64; x64) AppleWebKit/537.36 (KHTML, like Gecko) draw.io/26.2.2 Chrome/134.0.6998.178 Electron/35.1.2 Safari/537.36" version="26.2.2">
  <diagram id="Lb4HRA_LbFH50GSRpndC" name="Página-1">
    <mxGraphModel dx="874" dy="537" grid="1" gridSize="10" guides="1" tooltips="1" connect="1" arrows="1" fold="1" page="1" pageScale="1" pageWidth="827" pageHeight="1169" math="0" shadow="0">
      <root>
        <mxCell id="0" />
        <mxCell id="1" parent="0" />
        <mxCell id="gps8GryWC4qN5R_oKgp6-3" style="edgeStyle=orthogonalEdgeStyle;rounded=0;orthogonalLoop=1;jettySize=auto;html=1;entryX=0.5;entryY=0;entryDx=0;entryDy=0;" parent="1" source="gps8GryWC4qN5R_oKgp6-1" target="gps8GryWC4qN5R_oKgp6-2" edge="1">
          <mxGeometry relative="1" as="geometry" />
        </mxCell>
        <mxCell id="gps8GryWC4qN5R_oKgp6-1" value="Inicio" style="rounded=1;whiteSpace=wrap;html=1;fillColor=#a20025;fontColor=#ffffff;strokeColor=#6F0000;" parent="1" vertex="1">
          <mxGeometry x="385" y="40" width="120" height="60" as="geometry" />
        </mxCell>
        <mxCell id="gps8GryWC4qN5R_oKgp6-124" style="edgeStyle=orthogonalEdgeStyle;rounded=0;orthogonalLoop=1;jettySize=auto;html=1;entryX=0.5;entryY=0;entryDx=0;entryDy=0;endArrow=classic;endFill=1;" parent="1" source="gps8GryWC4qN5R_oKgp6-2" target="gps8GryWC4qN5R_oKgp6-5" edge="1">
          <mxGeometry relative="1" as="geometry" />
        </mxCell>
        <mxCell id="gps8GryWC4qN5R_oKgp6-2" value="Cadastrar venda" style="rounded=0;whiteSpace=wrap;html=1;fillColor=#a20025;fontColor=#ffffff;strokeColor=#6F0000;" parent="1" vertex="1">
          <mxGeometry x="385" y="160" width="120" height="60" as="geometry" />
        </mxCell>
        <mxCell id="gps8GryWC4qN5R_oKgp6-122" style="edgeStyle=orthogonalEdgeStyle;rounded=0;orthogonalLoop=1;jettySize=auto;html=1;entryX=0.5;entryY=0;entryDx=0;entryDy=0;endArrow=classic;endFill=1;" parent="1" source="gps8GryWC4qN5R_oKgp6-5" target="gps8GryWC4qN5R_oKgp6-51" edge="1">
          <mxGeometry relative="1" as="geometry" />
        </mxCell>
        <mxCell id="woTIpzxA7oXzSTIBh2HA-9" style="edgeStyle=orthogonalEdgeStyle;rounded=0;orthogonalLoop=1;jettySize=auto;html=1;entryX=0.5;entryY=0;entryDx=0;entryDy=0;" parent="1" source="gps8GryWC4qN5R_oKgp6-5" target="woTIpzxA7oXzSTIBh2HA-2" edge="1">
          <mxGeometry relative="1" as="geometry" />
        </mxCell>
        <mxCell id="gps8GryWC4qN5R_oKgp6-5" value="Item&lt;br&gt;selecionado?" style="rhombus;whiteSpace=wrap;html=1;fillColor=#1ba1e2;fontColor=#ffffff;strokeColor=#006EAF;" parent="1" vertex="1">
          <mxGeometry x="360" y="280" width="170" height="170" as="geometry" />
        </mxCell>
        <mxCell id="gps8GryWC4qN5R_oKgp6-51" value="Solicitar item" style="rounded=0;whiteSpace=wrap;html=1;fillColor=#a20025;fontColor=#ffffff;strokeColor=#6F0000;" parent="1" vertex="1">
          <mxGeometry x="550" y="460" width="120" height="60" as="geometry" />
        </mxCell>
        <mxCell id="gps8GryWC4qN5R_oKgp6-97" value="NAO" style="text;html=1;align=center;verticalAlign=middle;resizable=0;points=[];autosize=1;strokeColor=none;fillColor=none;" parent="1" vertex="1">
          <mxGeometry x="570" y="339" width="40" height="20" as="geometry" />
        </mxCell>
        <mxCell id="gps8GryWC4qN5R_oKgp6-98" value="SIM" style="text;html=1;align=center;verticalAlign=middle;resizable=0;points=[];autosize=1;strokeColor=none;fillColor=none;" parent="1" vertex="1">
          <mxGeometry x="260" y="339" width="40" height="20" as="geometry" />
        </mxCell>
        <mxCell id="woTIpzxA7oXzSTIBh2HA-13" style="edgeStyle=orthogonalEdgeStyle;rounded=0;orthogonalLoop=1;jettySize=auto;html=1;entryX=0;entryY=0.5;entryDx=0;entryDy=0;" parent="1" source="gps8GryWC4qN5R_oKgp6-112" target="gps8GryWC4qN5R_oKgp6-115" edge="1">
          <mxGeometry relative="1" as="geometry" />
        </mxCell>
        <mxCell id="gps8GryWC4qN5R_oKgp6-112" value="Baixar estoque" style="rounded=0;whiteSpace=wrap;html=1;fillColor=#a20025;fontColor=#ffffff;strokeColor=#6F0000;" parent="1" vertex="1">
          <mxGeometry x="40" y="600" width="120" height="60" as="geometry" />
        </mxCell>
        <mxCell id="woTIpzxA7oXzSTIBh2HA-12" style="edgeStyle=orthogonalEdgeStyle;rounded=0;orthogonalLoop=1;jettySize=auto;html=1;entryX=0.5;entryY=0;entryDx=0;entryDy=0;" parent="1" source="gps8GryWC4qN5R_oKgp6-115" target="QyLqrajHiVCN0jX9JTwc-1" edge="1">
          <mxGeometry relative="1" as="geometry" />
        </mxCell>
        <mxCell id="gps8GryWC4qN5R_oKgp6-115" value="Movimentar financeiro - Adicionar" style="rounded=0;whiteSpace=wrap;html=1;fillColor=#a20025;fontColor=#ffffff;strokeColor=#6F0000;" parent="1" vertex="1">
          <mxGeometry x="200" y="760" width="120" height="60" as="geometry" />
        </mxCell>
        <mxCell id="gps8GryWC4qN5R_oKgp6-125" value="&lt;font style=&quot;font-size: 18px&quot;&gt;UC-007 Cadastrar venda&lt;/font&gt;" style="text;html=1;align=center;verticalAlign=middle;resizable=0;points=[];autosize=1;strokeColor=#666666;fillColor=#f5f5f5;fontColor=#333333;" parent="1" vertex="1">
          <mxGeometry x="580" y="20" width="220" height="20" as="geometry" />
        </mxCell>
        <mxCell id="QyLqrajHiVCN0jX9JTwc-1" value="Fim" style="rounded=1;whiteSpace=wrap;html=1;fillColor=#a20025;fontColor=#ffffff;strokeColor=#6F0000;" parent="1" vertex="1">
          <mxGeometry x="200" y="900" width="120" height="60" as="geometry" />
        </mxCell>
        <mxCell id="woTIpzxA7oXzSTIBh2HA-5" style="edgeStyle=orthogonalEdgeStyle;rounded=0;orthogonalLoop=1;jettySize=auto;html=1;entryX=0.5;entryY=0;entryDx=0;entryDy=0;" parent="1" source="woTIpzxA7oXzSTIBh2HA-2" target="gps8GryWC4qN5R_oKgp6-112" edge="1">
          <mxGeometry relative="1" as="geometry" />
        </mxCell>
        <mxCell id="woTIpzxA7oXzSTIBh2HA-8" style="edgeStyle=orthogonalEdgeStyle;rounded=0;orthogonalLoop=1;jettySize=auto;html=1;entryX=0.5;entryY=0;entryDx=0;entryDy=0;" parent="1" source="woTIpzxA7oXzSTIBh2HA-2" target="woTIpzxA7oXzSTIBh2HA-6" edge="1">
          <mxGeometry relative="1" as="geometry" />
        </mxCell>
        <mxCell id="woTIpzxA7oXzSTIBh2HA-2" value="Produto ou &lt;br&gt;serviço?" style="rhombus;whiteSpace=wrap;html=1;fillColor=#1ba1e2;fontColor=#ffffff;strokeColor=#006EAF;" parent="1" vertex="1">
          <mxGeometry x="200" y="450" width="120" height="120" as="geometry" />
        </mxCell>
        <mxCell id="woTIpzxA7oXzSTIBh2HA-4" value="PRODUTO" style="text;html=1;align=center;verticalAlign=middle;resizable=0;points=[];autosize=1;strokeColor=none;fillColor=none;" parent="1" vertex="1">
          <mxGeometry x="100" y="475" width="80" height="30" as="geometry" />
        </mxCell>
        <mxCell id="woTIpzxA7oXzSTIBh2HA-15" style="edgeStyle=orthogonalEdgeStyle;rounded=0;orthogonalLoop=1;jettySize=auto;html=1;entryX=1;entryY=0.5;entryDx=0;entryDy=0;" parent="1" source="woTIpzxA7oXzSTIBh2HA-6" target="gps8GryWC4qN5R_oKgp6-115" edge="1">
          <mxGeometry relative="1" as="geometry" />
        </mxCell>
        <mxCell id="woTIpzxA7oXzSTIBh2HA-6" value="Coletar dados do serviço" style="rounded=0;whiteSpace=wrap;html=1;fillColor=#a20025;fontColor=#ffffff;strokeColor=#6F0000;" parent="1" vertex="1">
          <mxGeometry x="360" y="600" width="120" height="60" as="geometry" />
        </mxCell>
        <mxCell id="woTIpzxA7oXzSTIBh2HA-16" value="SERVIÇO" style="text;html=1;align=center;verticalAlign=middle;resizable=0;points=[];autosize=1;strokeColor=none;fillColor=none;" parent="1" vertex="1">
          <mxGeometry x="340" y="475" width="80" height="30" as="geometry" />
        </mxCell>
      </root>
    </mxGraphModel>
  </diagram>
</mxfile>
